<?xml version="1.0"?><svg width="793.7007874015749" height="1122.5196850393702" xmlns="http://www.w3.org/2000/svg">
 <title>red-heart</title>
 <metadata id="metadata3547">image/svg+xml</metadata>
 <g>
  <title>Layer 1</title>
  <g id="layer1">
   <path fill="none" fill-rule="evenodd" stroke="#000000" stroke-width="3.799726" stroke-linejoin="round" stroke-miterlimit="4" id="path2361" d="m254.619186,253.642044c-137.447098,-2.471161 -264.638546,212.481247 105.925735,435.340683c0.406281,-0.73114 1.968781,-0.73114 2.375031,0c382.517975,-230.048645 234.665131,-451.640152 92.625702,-434.39061c-55.372711,6.724472 -81.503326,37.456467 -93.813263,63.887985c-12.309845,-26.431519 -38.440552,-57.163513 -93.81308,-63.887985c-4.438782,-0.539276 -8.866302,-0.870193 -13.300125,-0.950058l0,-0.000015z"/>
  </g>
  <g id="svg_1">
   <path id="svg_2" fill="#fcfcfc" fill-rule="evenodd" stroke="#fcd6d6" stroke-width="3.799726" stroke-linejoin="round" stroke-miterlimit="4" d="m254.619186,253.642044c-137.447098,-2.471161 -264.638546,212.481247 105.925735,435.340683c0.406281,-0.73114 1.968781,-0.73114 2.375031,0c382.517975,-230.048645 234.665131,-451.640152 92.625702,-434.39061c-55.372711,6.724472 -81.503326,37.456467 -93.813263,63.887985c-12.309845,-26.431519 -38.440552,-57.163513 -93.81308,-63.887985c-4.438782,-0.539276 -8.866302,-0.870193 -13.300125,-0.950058l0,-0.000015z"/>
  </g>
 </g>
</svg>