<?xml version="1.0"?><svg width="793.7007866666665" height="1122.5196799999999" xmlns="http://www.w3.org/2000/svg">
 <title>Baby Pink Heart</title>
 <g>
  <title>Layer 1</title>
  <g id="layer1">
   <path d="m328.41571,225.145874c-66.23999,0 -119.999954,53.76001 -119.999954,120c0,134.755524 135.933151,170.08728 228.562454,303.308044c87.574219,-132.403381 228.5625,-172.854584 228.5625,-303.308044c0,-66.23999 -53.759888,-120 -120,-120c-48.047913,0 -89.401611,28.370422 -108.5625,69.1875c-19.160797,-40.817078 -60.514496,-69.1875 -108.5625,-69.1875z" id="path7" stroke-miterlimit="4" stroke-width="18.700001" stroke="#f8f8f8" fill="#f8f8f8"/>
   <path stroke="#f8f8f8" d="m328,239.59375c-57.959656,0 -105,47.040314 -105,105c0,117.9104 118.918579,148.838745 199.96875,265.40625c6.559937,-9.917969 -139.96875,-145.526917 -139.96875,-245.40625c0,-57.959686 47.040344,-105 105,-105c0.504517,0 0.997192,0.055359 1.5,0.0625c-17.275635,-12.583405 -38.494415,-20.062515 -61.5,-20.0625z" id="path220" stroke-miterlimit="4" stroke-width="18.700001" fill-opacity="0.64557" fill="#f8f8f8"/>
  </g>
  <path d="m113.299194,407.480347c7,-3 20.253052,-9.539856 26,-13c7.369659,-4.437134 13.140518,-7.561218 20,-10c7.175751,-2.551208 12.927673,-4.23172 19,-6c3.958679,-1.152771 6.013626,-0.670074 10,-1c6.062042,-0.501709 13,-1 19,-1c4,0 7,1 9,2c2,1 3,2 6,2c2,0 2.934143,1.144287 5,2c2.92157,1.210144 4.228363,1.851959 7,3c1.306564,0.541199 4.152237,1.234619 6,2c2.613129,1.082397 3,2 4,2l0,1l1,0l1,0" id="svg_4" stroke-width="0" stroke="#f8f8f8" fill="none"/>
  <path d="m215.299194,352.480347c-10,20 -10,27 -10,34c0,7 0,13 0,17c0,6 0,10 0,13c0,3 0,5 0,7l0,1l-1,0" id="svg_5" stroke-width="0" stroke="#f8f8f8" fill="none"/>
  <path d="m304.294189,526.471924c0,-70 -4.133331,-70 -8.266663,-70c-4.133331,0 -8.266663,0 -16.533325,0c-8.266663,0 -16.533325,0 -28.933334,0c-8.266663,0 -12.399994,-70 -16.533325,-70c-8.266678,0 -12.400009,0 -20.666672,0c-4.133331,0 -8.266663,0 -12.399994,0c-4.133347,0 -9.477295,20.50354 -12.400009,70c-2.922714,49.49646 -4.133331,70 -8.266663,70l4.133331,0" id="svg_6" stroke-width="0" stroke="#f8f8f8" fill="none"/>
 </g>

</svg>
