<?xml version="1.0"?><svg width="419.14468" height="403.60483" xmlns="http://www.w3.org/2000/svg">
 <title>Blues Clues Paw</title>
 <metadata id="metadata1655">image/svg+xml</metadata>
 <g>
  <title>Layer 1</title>
  <g id="layer1">
   <path fill="#ffffff" id="path1575" d="m280.630249,-0.00171c-0.85199,0.0112 -1.725952,0.05427 -2.594208,0.12439c-34.579895,6.15322 -53.593246,43.848561 -56.348343,77.089387c-4.025925,30.162964 8.868118,68.931274 40.994308,75.690033c4.659943,0.914597 9.501892,0.496597 14.056946,-0.777435c38.685516,-13.372589 55.997681,-60.604813 50.405823,-99.727974c-1.625488,-25.268051 -20.102539,-52.74563 -46.514526,-52.3984zm-146.602249,1.61704c-21.501587,0.5441 -38.250839,23.025091 -41.657959,44.157699c-7.182564,41.868267 11.292198,93.889812 53.603333,107.12907c3.963165,0.888519 8.0625,0.980011 12.066025,0.342056c28.597839,-4.913315 40.712708,-37.967003 39.516235,-64.650597c-0.860764,-35.199287 -18.597,-75.899659 -54.055801,-85.796549c-3.241211,-0.88605 -6.400177,-1.25941 -9.471832,-1.18169l0,0.00001zm240.294937,118.914821c-37.196472,2.294098 -62.697632,40.554184 -66.332977,76.280869c-4.922577,25.766907 8.402679,60.230148 36.922028,62.287216c39.766418,-0.50531 66.89505,-44.310486 68.022247,-82.002701c2.515289,-24.928619 -11.729156,-55.188942 -38.611298,-56.565384zm-325.571598,8.489471c-15.82481,-0.140366 -31.388639,9.631424 -36.560059,26.214737c-13.79648,44.360718 13.908659,100.543381 59.485508,109.865616c19.021461,3.35556 35.7351,-11.703247 40.451363,-29.822006c9.995117,-38.754089 -10.53447,-83.753082 -45.277771,-101.345032c-5.660339,-3.27478 -11.906719,-4.858398 -18.099041,-4.913315zm166.752506,79.546051c-31.023605,0.068207 -62.533661,16.297974 -82.622131,40.457153c-21.697052,28.15863 -39.470642,60.926666 -46.424042,96.462799c-8.447571,25.580627 10.698578,55.019684 37.223701,55.197144c31.911156,0.913788 59.336632,-21.6763 91.068336,-23.353851c26.92186,-4.230865 51.027786,10.204987 75.231705,19.65329c20.608063,9.086578 49.08493,5.604401 59.60614,-17.25882c8.27594,-23.304016 -3.905426,-48.153046 -13.996552,-68.848694c-20.58197,-33.591675 -42.631836,-68.896729 -76.37796,-89.870239c-13.526459,-8.643158 -28.558151,-12.472092 -43.709198,-12.438782z"/>
  </g>
 </g>
</svg>